# xmcd CD database file
#
# Track frame offsets:
#	150
#	19350
#	42550
#
# Disc length: 1005 seconds
#
# Revision: 0
# Processed by: cddbd v1.5PL3 Copyright (c) Steve Scherf et al.
# Submitted via: CDex 1.51
#
DISCID=2303eb03
DTITLE=AKIKO YANO and SATOSHI TOMIIE - harusaki-kobeni
DYEAR=1996
DGENRE=Techno
TTITLE0=harusaki-kobeni-ST DRUM'N' BASS EXPERIENCE
TTITLE1=harusaki-kobeni-AMBIENT THANG
TTITLE2=harusaki-kobeni-MINI-MAL SUBMARINE DUB
EXTD=YEAR: 1996
EXTT0=
EXTT1=
EXTT2=
PLAYORDER=
